<svg xmlns="http://www.w3.org/2000/svg" xmlns:xlink="http://www.w3.org/1999/xlink" xmlns:lucid="lucid" width="951" height="868.08"><g transform="translate(-160 -80)" lucid:page-tab-id="0_0"><path d="M0 0h1870.87v1322.83H0z" fill="#fff"/><path d="M180 100h240v60H180z" fill="none"/><use xlink:href="#a" transform="matrix(1,0,0,1,180,100) translate(76.85185185185185 21.111111111111114)"/><use xlink:href="#b" transform="matrix(1,0,0,1,180,100) translate(113.88888888888889 21.111111111111114)"/><use xlink:href="#c" transform="matrix(1,0,0,1,180,100) translate(78.08641975308642 47.777777777777786)"/><use xlink:href="#d" transform="matrix(1,0,0,1,180,100) translate(115.12345679012346 47.777777777777786)"/><path d="M452 154v432h256V154z" stroke="#5e5e5e" stroke-width="3" fill="#fff"/><path d="M612 154c0 29.82-14.33 54-32 54s-32-24.18-32-54M420 181h32m256 0h32m-320 54h32m256 0h32m-320 54h32m256 0h32m-320 54h32m256 0h32m-320 54h32m256 0h32m-320 54h32m256 0h32m-320 54h32m256 0h32m-320 54h32m256 0h32" stroke="#5e5e5e" stroke-width="3" fill="#fff"/><use xlink:href="#e" transform="matrix(1,0,0,1,468,154) translate(9.827160493827162 31.444444444444443)"/><use xlink:href="#f" transform="matrix(1,0,0,1,468,532) translate(9.827160493827162 31.444444444444443)"/><use xlink:href="#g" transform="matrix(1,0,0,1,468,208) translate(9.827160493827162 31.444444444444443)"/><use xlink:href="#h" transform="matrix(1,0,0,1,468,478) translate(9.827160493827162 31.444444444444443)"/><use xlink:href="#i" transform="matrix(1,0,0,1,468,262) translate(9.827160493827162 31.444444444444443)"/><use xlink:href="#j" transform="matrix(1,0,0,1,468,424) translate(9.827160493827162 31.444444444444443)"/><use xlink:href="#k" transform="matrix(1,0,0,1,468,316) translate(9.827160493827162 31.444444444444443)"/><use xlink:href="#l" transform="matrix(1,0,0,1,468,369.99999999999994) translate(9.827160493827162 31.444444444444443)"/><use xlink:href="#m" transform="matrix(1,0,0,1,420,262) translate(121.79012345679013 19.444444444444443)"/><use xlink:href="#n" transform="matrix(1,0,0,1,660,154) translate(3.6543209876543212 31.444444444444443)"/><use xlink:href="#o" transform="matrix(1,0,0,1,660,208) translate(3.6543209876543212 31.444444444444443)"/><use xlink:href="#p" transform="matrix(1,0,0,1,660,262) translate(3.6543209876543212 31.444444444444443)"/><use xlink:href="#q" transform="matrix(1,0,0,1,660,316) translate(3.6543209876543212 31.444444444444443)"/><use xlink:href="#r" transform="matrix(1,0,0,1,660,369.99999999999994) translate(3.6543209876543212 31.444444444444443)"/><use xlink:href="#s" transform="matrix(1,0,0,1,660,424) translate(4.487654320987655 31.444444444444443)"/><use xlink:href="#t" transform="matrix(1,0,0,1,660,478) translate(3.6543209876543212 31.444444444444443)"/><use xlink:href="#u" transform="matrix(1,0,0,1,660,532) translate(9.827160493827162 31.444444444444443)"/><path d="M280 215h100v40H280z" fill="none"/><path d="M280 235h22.5l5-6 7.5 12 7.5-12 7.5 12 7.5-12 7.5 12 7.5-12 7.5 12 5-6h15" stroke="#5e5e5e" stroke-width="3" fill="none"/><use xlink:href="#v" transform="matrix(1,0,0,1,280,249.00000000000003) translate(9.012345679012341 19.444444444444443)"/><use xlink:href="#w" transform="matrix(1,0,0,1,280,249.00000000000003) translate(31.172839506172835 19.444444444444443)"/><use xlink:href="#x" transform="matrix(1,0,0,1,280,249.00000000000003) translate(74.38271604938272 19.444444444444443)"/><path d="M381 235h38" stroke="#5e5e5e" stroke-width="2" fill="none"/><path d="M381.03 236H380v-2h1.03M420 236h-1.03v-2H420" fill="#5e5e5e"/><path d="M280 269h100v40H280z" fill="none"/><path d="M280 289h22.5l5-6 7.5 12 7.5-12 7.5 12 7.5-12 7.5 12 7.5-12 7.5 12 5-6h15" stroke="#5e5e5e" stroke-width="3" fill="none"/><use xlink:href="#v" transform="matrix(1,0,0,1,280,303) translate(9.012345679012341 19.444444444444443)"/><use xlink:href="#w" transform="matrix(1,0,0,1,280,303) translate(31.172839506172835 19.444444444444443)"/><use xlink:href="#x" transform="matrix(1,0,0,1,280,303) translate(74.38271604938272 19.444444444444443)"/><path d="M381 289h38" stroke="#5e5e5e" stroke-width="2" fill="none"/><path d="M381.03 290H380v-2h1.03M420 290h-1.03v-2H420" fill="#5e5e5e"/><path d="M280 323h100v40H280z" fill="none"/><path d="M280 343h22.5l5-6 7.5 12 7.5-12 7.5 12 7.5-12 7.5 12 7.5-12 7.5 12 5-6h15" stroke="#5e5e5e" stroke-width="3" fill="none"/><use xlink:href="#v" transform="matrix(1,0,0,1,280,357) translate(9.012345679012341 19.444444444444443)"/><use xlink:href="#w" transform="matrix(1,0,0,1,280,357) translate(31.172839506172835 19.444444444444443)"/><use xlink:href="#x" transform="matrix(1,0,0,1,280,357) translate(74.38271604938272 19.444444444444443)"/><path d="M381 343h38" stroke="#5e5e5e" stroke-width="2" fill="none"/><path d="M381.03 344H380v-2h1.03M420 344h-1.03v-2H420" fill="#5e5e5e"/><path d="M280 377h100v40H280z" fill="none"/><path d="M280 397h22.5l5-6 7.5 12 7.5-12 7.5 12 7.5-12 7.5 12 7.5-12 7.5 12 5-6h15" stroke="#5e5e5e" stroke-width="3" fill="none"/><use xlink:href="#v" transform="matrix(1,0,0,1,280,411) translate(9.012345679012341 19.444444444444443)"/><use xlink:href="#w" transform="matrix(1,0,0,1,280,411) translate(31.172839506172835 19.444444444444443)"/><use xlink:href="#x" transform="matrix(1,0,0,1,280,411) translate(74.38271604938272 19.444444444444443)"/><path d="M381 397h38" stroke="#5e5e5e" stroke-width="2" fill="none"/><path d="M381.03 398H380v-2h1.03M420 398h-1.03v-2H420" fill="#5e5e5e"/><path d="M520 620h100v77H520z" fill="none"/><path d="M560 635.4l20-15.4-3 4m3-4l-4.8 1.7m-5.2 13.7l20-15.4-3 4m3-4l-4.8 1.7M520 658.5h30m0-23.1v46.2l30-23.1-30-23.1zm30 0v46.2m0-23.1h40z" stroke="#5e5e5e" stroke-width="3" fill="#7ab648"/><path d="M520 697.08h100v77H520z" fill="none"/><path d="M560 712.48l20-15.4-3 4m3-4l-4.8 1.7m-5.2 13.7l20-15.4-3 4m3-4l-4.8 1.7M520 735.58h30m0-23.1v46.2l30-23.1-30-23.1zm30 0v46.2m0-23.1h40z" stroke="#5e5e5e" stroke-width="3" fill="#c92d39"/><path d="M520 774.08h100v77H520z" fill="none"/><path d="M560 789.48l20-15.4-3 4m3-4l-4.8 1.7m-5.2 13.7l20-15.4-3 4m3-4l-4.8 1.7M520 812.58h30m0-23.1v46.2l30-23.1-30-23.1zm30 0v46.2m0-23.1h40z" stroke="#5e5e5e" stroke-width="3" fill="#0c7cba"/><path d="M520 851.08h100v77H520z" fill="none"/><path d="M560 866.48l20-15.4-3 4m3-4l-4.8 1.7m-5.2 13.7l20-15.4-3 4m3-4l-4.8 1.7M520 889.58h30m0-23.1v46.2l30-23.1-30-23.1zm30 0v46.2m0-23.1h40z" stroke="#5e5e5e" stroke-width="3" fill="#fcc438"/><path d="M279 235h-43c-3.3 0-6 2.7-6 6v642.58c0 3.32 2.7 6 6 6h283" stroke="#5e5e5e" stroke-width="2" fill="none"/><path d="M280 236h-1.03v-2H280M520 890.58h-1.03v-2H520" fill="#5e5e5e"/><path d="M279 289h-33c-3.3 0-6 2.7-6 6v511.58c0 3.32 2.7 6 6 6h273" stroke="#5e5e5e" stroke-width="2" fill="none"/><path d="M280 290h-1.03v-2H280M520 813.58h-1.03v-2H520" fill="#5e5e5e"/><path d="M279 343h-23c-3.3 0-6 2.7-6 6v380.58c0 3.32 2.7 6 6 6h263" stroke="#5e5e5e" stroke-width="2" fill="none"/><path d="M280 344h-1.03v-2H280M520 736.58h-1.03v-2H520" fill="#5e5e5e"/><path d="M279 397h-13c-3.3 0-6 2.7-6 6v249.5c0 3.3 2.7 6 6 6h253" stroke="#5e5e5e" stroke-width="2" fill="none"/><path d="M280 398h-1.03v-2H280M520 659.5h-1.03v-2H520" fill="#5e5e5e"/><path d="M741 343h33c3.3 0 6 2.7 6 6v303.5c0 3.3-2.7 6-6 6H621" stroke="#5e5e5e" stroke-width="2" fill="none"/><path d="M741.03 344H740v-2h1.03M621.03 659.5H620v-2h1.03" fill="#5e5e5e"/><path d="M621 735.58h153c3.3 0 6-2.68 6-6V349c0-3.3-2.7-6-6-6h-33" stroke="#5e5e5e" stroke-width="2" fill="none"/><path d="M621.03 736.58H620v-2h1.03M741.03 344H740v-2h1.03" fill="#5e5e5e"/><path d="M621 812.58h153c3.3 0 6-2.68 6-6V349c0-3.3-2.7-6-6-6h-33" stroke="#5e5e5e" stroke-width="2" fill="none"/><path d="M621.03 813.58H620v-2h1.03M741.03 344H740v-2h1.03" fill="#5e5e5e"/><path d="M621 889.58h153c3.3 0 6-2.68 6-6V349c0-3.3-2.7-6-6-6h-33" stroke="#5e5e5e" stroke-width="2" fill="none"/><path d="M621.03 890.58H620v-2h1.03M741.03 344H740v-2h1.03" fill="#5e5e5e"/><path d="M780 264.5h100v35H780z" fill="none"/><path d="M780 289h30c0 2.84 2.24 4.67 5 4.67s5-1.83 5-4.1c0-2.24-2.24-4.07-5-4.07s-5 1.83-5 4.08m10-.58l27-14m3 14c0 2.84 2.24 4.67 5 4.67s5-1.83 5-4.1c0-2.24-2.24-4.07-5-4.07s-5 1.83-5 4.08m10-.58h20" stroke="#5e5e5e" stroke-width="3" fill="#fff"/><path d="M741 289h38" stroke="#5e5e5e" stroke-width="2" fill="none"/><path d="M741.03 290H740v-2h1.03M780 290h-1.03v-2H780" fill="#5e5e5e"/><path d="M960 269h100v40H960z" fill="none"/><path d="M960 289h22.5l5-6 7.5 12 7.5-12 7.5 12 7.5-12 7.5 12 7.5-12 7.5 12 5-6h15" stroke="#5e5e5e" stroke-width="3" fill="none"/><g><use xlink:href="#v" transform="matrix(1,0,0,1,960,303) translate(15.802469135802468 19.444444444444443)"/><use xlink:href="#y" transform="matrix(1,0,0,1,960,303) translate(37.96296296296296 19.444444444444443)"/><use xlink:href="#x" transform="matrix(1,0,0,1,960,303) translate(67.5925925925926 19.444444444444443)"/></g><path d="M959 289h-78" stroke="#5e5e5e" stroke-width="2" fill="none"/><path d="M960 290h-1.03v-2H960M881.03 290H880v-2h1.03" fill="#5e5e5e"/><path d="M881 289h33c3.3 0 6 2.7 6 6v150c0 3.3-2.7 6-6 6H785c0-2.76-2.24-5-5-5s-5 2.24-5 5h-34" stroke="#5e5e5e" stroke-width="2" fill="none"/><path d="M881.03 290H880v-2h1.03M741.03 452H740v-2h1.03" fill="#5e5e5e"/><path d="M1061 289h33c3.3 0 6 2.7 6 6v42c0 3.3-2.7 6-6 6H925c0-2.76-2.24-5-5-5s-5 2.24-5 5H741" stroke="#5e5e5e" stroke-width="2" fill="none"/><path d="M1061.03 290H1060v-2h1.03M741.03 344H740v-2h1.03" fill="#5e5e5e"/><defs><path fill="#333" d="M27 0v-27h64v-190l-56 39v-29l58-41h29v221h61V0H27" id="z"/><path fill="#333" d="M126-127c33 6 58 20 58 59 0 88-139 92-164 29-3-8-5-16-6-25l32-3c6 27 21 44 54 44 32 0 52-15 52-46 0-38-36-46-79-43v-28c39 1 72-4 72-42 0-27-17-43-46-43-28 0-47 15-49 41l-32-3c6-42 35-63 81-64 48-1 79 21 79 65 0 36-21 52-52 59" id="A"/><path fill="#333" d="M33-154v-36h34v36H33zM33 0v-36h34V0H33" id="B"/><g id="a"><use transform="matrix(0.06172839506172839,0,0,0.06172839506172839,0,0)" xlink:href="#z"/><use transform="matrix(0.06172839506172839,0,0,0.06172839506172839,12.345679012345679,0)" xlink:href="#A"/><use transform="matrix(0.06172839506172839,0,0,0.06172839506172839,24.691358024691358,0)" xlink:href="#B"/></g><path fill="#333" d="M143 4C61 4 22-44 18-125c-5-107 100-154 193-111 17 8 29 25 37 43l-32 9c-13-25-37-40-76-40-61 0-88 39-88 99 0 61 29 100 91 101 35 0 62-11 79-27v-45h-74v-28h105v86C228-13 192 4 143 4" id="C"/><path fill="#333" d="M190 0L58-211 59 0H30v-248h39L202-35l-2-213h31V0h-41" id="D"/><path fill="#333" d="M30-248c118-7 216 8 213 122C240-48 200 0 122 0H30v-248zM63-27c89 8 146-16 146-99s-60-101-146-95v194" id="E"/><g id="b"><use transform="matrix(0.06172839506172839,0,0,0.06172839506172839,0,0)" xlink:href="#C"/><use transform="matrix(0.06172839506172839,0,0,0.06172839506172839,17.28395061728395,0)" xlink:href="#D"/><use transform="matrix(0.06172839506172839,0,0,0.06172839506172839,33.2716049382716,0)" xlink:href="#E"/></g><path fill="#333" d="M155-56V0h-30v-56H8v-25l114-167h33v167h35v25h-35zm-30-156c-27 46-58 90-88 131h88v-131" id="F"/><g id="c"><use transform="matrix(0.06172839506172839,0,0,0.06172839506172839,0,0)" xlink:href="#z"/><use transform="matrix(0.06172839506172839,0,0,0.06172839506172839,12.345679012345679,0)" xlink:href="#F"/><use transform="matrix(0.06172839506172839,0,0,0.06172839506172839,24.691358024691358,0)" xlink:href="#B"/></g><path fill="#333" d="M137 0h-34L2-248h35l83 218 83-218h36" id="G"/><path fill="#333" d="M212-179c-10-28-35-45-73-45-59 0-87 40-87 99 0 60 29 101 89 101 43 0 62-24 78-52l27 14C228-24 195 4 139 4 59 4 22-46 18-125c-6-104 99-153 187-111 19 9 31 26 39 46" id="H"/><g id="d"><use transform="matrix(0.06172839506172839,0,0,0.06172839506172839,0,0)" xlink:href="#G"/><use transform="matrix(0.06172839506172839,0,0,0.06172839506172839,14.814814814814813,0)" xlink:href="#H"/><use transform="matrix(0.06172839506172839,0,0,0.06172839506172839,30.80246913580247,0)" xlink:href="#H"/></g><use transform="matrix(0.06172839506172839,0,0,0.06172839506172839,0,0)" xlink:href="#z" id="e"/><path fill="#333" d="M134-131c28 9 52 24 51 62-1 50-34 73-85 73S17-19 16-69c0-36 21-54 49-61-75-25-45-126 34-121 46 3 78 18 79 63 0 33-17 51-44 57zm-34-11c31 1 46-15 46-44 0-28-17-43-47-42-29 0-46 13-45 42 1 28 16 44 46 44zm1 122c35 0 51-18 51-52 0-30-18-46-53-46-33 0-51 17-51 47 0 34 19 51 53 51" id="I"/><use transform="matrix(0.06172839506172839,0,0,0.06172839506172839,0,0)" xlink:href="#I" id="f"/><path fill="#333" d="M101-251c82-7 93 87 43 132L82-64C71-53 59-42 53-27h129V0H18c2-99 128-94 128-182 0-28-16-43-45-43s-46 15-49 41l-32-3c6-41 34-60 81-64" id="J"/><use transform="matrix(0.06172839506172839,0,0,0.06172839506172839,0,0)" xlink:href="#J" id="g"/><path fill="#333" d="M64 0c3-98 48-159 88-221H18v-27h164v26C143-157 98-101 97 0H64" id="K"/><use transform="matrix(0.06172839506172839,0,0,0.06172839506172839,0,0)" xlink:href="#K" id="h"/><use transform="matrix(0.06172839506172839,0,0,0.06172839506172839,0,0)" xlink:href="#A" id="i"/><path fill="#333" d="M110-160c48 1 74 30 74 79 0 53-28 85-80 85-65 0-83-55-86-122-5-90 50-162 133-122 14 7 22 21 27 39l-31 6c-5-40-67-38-82-6-9 19-15 44-15 74 11-20 30-34 60-33zm-7 138c34 0 49-23 49-58s-16-56-50-56c-29 0-50 16-49 49 1 36 15 65 50 65" id="L"/><use transform="matrix(0.06172839506172839,0,0,0.06172839506172839,0,0)" xlink:href="#L" id="j"/><use transform="matrix(0.06172839506172839,0,0,0.06172839506172839,0,0)" xlink:href="#F" id="k"/><path fill="#333" d="M54-142c48-35 137-8 131 61C196 18 31 33 14-55l32-4c7 23 22 37 52 37 35-1 51-22 54-58 4-55-73-65-99-34H22l8-134h141v27H59" id="M"/><use transform="matrix(0.06172839506172839,0,0,0.06172839506172839,0,0)" xlink:href="#M" id="l"/><path fill="#333" d="M205 0l-28-72H64L36 0H1l101-248h38L239 0h-34zm-38-99l-47-123c-12 45-31 82-46 123h93" id="N"/><path fill="#333" d="M114-163C36-179 61-72 57 0H25l-1-190h30c1 12-1 29 2 39 6-27 23-49 58-41v29" id="O"/><path fill="#333" d="M85-194c31 0 48 13 60 33l-1-100h32l1 261h-30c-2-10 0-23-3-31C134-8 116 4 85 4 32 4 16-35 15-94c0-66 23-100 70-100zm9 24c-40 0-46 34-46 75 0 40 6 74 45 74 42 0 51-32 51-76 0-42-9-74-50-73" id="P"/><path fill="#333" d="M84 4C-5 8 30-112 23-190h32v120c0 31 7 50 39 49 72-2 45-101 50-169h31l1 190h-30c-1-10 1-25-2-33-11 22-28 36-60 37" id="Q"/><path fill="#333" d="M24-231v-30h32v30H24zM24 0v-190h32V0H24" id="R"/><path fill="#333" d="M117-194c89-4 53 116 60 194h-32v-121c0-31-8-49-39-48C34-167 62-67 57 0H25l-1-190h30c1 10-1 24 2 32 11-22 29-35 61-36" id="S"/><path fill="#333" d="M100-194c62-1 85 37 85 99 1 63-27 99-86 99S16-35 15-95c0-66 28-99 85-99zM99-20c44 1 53-31 53-75 0-43-8-75-51-75s-53 32-53 75 10 74 51 75" id="T"/><g id="m"><use transform="matrix(0.06172839506172839,0,0,0.06172839506172839,0,0)" xlink:href="#N"/><use transform="matrix(0.06172839506172839,0,0,0.06172839506172839,14.814814814814813,0)" xlink:href="#O"/><use transform="matrix(0.06172839506172839,0,0,0.06172839506172839,22.160493827160494,0)" xlink:href="#P"/><use transform="matrix(0.06172839506172839,0,0,0.06172839506172839,34.50617283950617,0)" xlink:href="#Q"/><use transform="matrix(0.06172839506172839,0,0,0.06172839506172839,46.85185185185185,0)" xlink:href="#R"/><use transform="matrix(0.06172839506172839,0,0,0.06172839506172839,51.72839506172839,0)" xlink:href="#S"/><use transform="matrix(0.06172839506172839,0,0,0.06172839506172839,64.07407407407408,0)" xlink:href="#T"/></g><g id="n"><use transform="matrix(0.06172839506172839,0,0,0.06172839506172839,0,0)" xlink:href="#z"/><use transform="matrix(0.06172839506172839,0,0,0.06172839506172839,12.345679012345679,0)" xlink:href="#L"/></g><g id="o"><use transform="matrix(0.06172839506172839,0,0,0.06172839506172839,0,0)" xlink:href="#z"/><use transform="matrix(0.06172839506172839,0,0,0.06172839506172839,12.345679012345679,0)" xlink:href="#M"/></g><g id="p"><use transform="matrix(0.06172839506172839,0,0,0.06172839506172839,0,0)" xlink:href="#z"/><use transform="matrix(0.06172839506172839,0,0,0.06172839506172839,12.345679012345679,0)" xlink:href="#F"/></g><g id="q"><use transform="matrix(0.06172839506172839,0,0,0.06172839506172839,0,0)" xlink:href="#z"/><use transform="matrix(0.06172839506172839,0,0,0.06172839506172839,12.345679012345679,0)" xlink:href="#A"/></g><g id="r"><use transform="matrix(0.06172839506172839,0,0,0.06172839506172839,0,0)" xlink:href="#z"/><use transform="matrix(0.06172839506172839,0,0,0.06172839506172839,12.345679012345679,0)" xlink:href="#J"/></g><g id="s"><use transform="matrix(0.06172839506172839,0,0,0.06172839506172839,0,0)" xlink:href="#z"/><use transform="matrix(0.06172839506172839,0,0,0.06172839506172839,10.679012345679013,0)" xlink:href="#z"/></g><path fill="#333" d="M101-251c68 0 85 55 85 127S166 4 100 4C33 4 14-52 14-124c0-73 17-127 87-127zm-1 229c47 0 54-49 54-102s-4-102-53-102c-51 0-55 48-55 102 0 53 5 102 54 102" id="U"/><g id="t"><use transform="matrix(0.06172839506172839,0,0,0.06172839506172839,0,0)" xlink:href="#z"/><use transform="matrix(0.06172839506172839,0,0,0.06172839506172839,12.345679012345679,0)" xlink:href="#U"/></g><path fill="#333" d="M99-251c64 0 84 50 84 122C183-37 130 33 47-8c-14-7-20-23-25-40l30-5c6 39 69 39 84 7 9-19 16-44 16-74-10 22-31 35-62 35-49 0-73-33-73-83 0-54 28-83 82-83zm-1 141c31-1 51-18 51-49 0-36-14-67-51-67-34 0-49 23-49 58 0 34 15 58 49 58" id="V"/><use transform="matrix(0.06172839506172839,0,0,0.06172839506172839,0,0)" xlink:href="#V" id="u"/><path fill="#333" d="M233-177c-1 41-23 64-60 70L243 0h-38l-65-103H63V0H30v-248c88 3 205-21 203 71zM63-129c60-2 137 13 137-47 0-61-80-42-137-45v92" id="W"/><use transform="matrix(0.06172839506172839,0,0,0.06172839506172839,0,0)" xlink:href="#W" id="v"/><g id="w"><use transform="matrix(0.06172839506172839,0,0,0.06172839506172839,0,0)" xlink:href="#J"/><use transform="matrix(0.06172839506172839,0,0,0.06172839506172839,12.345679012345679,0)" xlink:href="#J"/><use transform="matrix(0.06172839506172839,0,0,0.06172839506172839,24.691358024691358,0)" xlink:href="#U"/></g><path fill="#333" d="M20-141c0-71 41-110 114-110s115 39 115 110c0 61-35 92-75 116l80-2V0H150v-39c35-20 64-46 64-100s-27-85-79-85c-54 0-81 31-81 85 0 52 29 80 65 100V0H15v-27l80 2C55-49 20-80 20-141" id="X"/><use transform="matrix(0.06172839506172839,0,0,0.06172839506172839,0,0)" xlink:href="#X" id="x"/><path fill="#333" d="M143 0L79-87 56-68V0H24v-261h32v163l83-92h37l-77 82L181 0h-38" id="Y"/><g id="y"><use transform="matrix(0.06172839506172839,0,0,0.06172839506172839,0,0)" xlink:href="#z"/><use transform="matrix(0.06172839506172839,0,0,0.06172839506172839,12.345679012345679,0)" xlink:href="#Y"/></g></defs></g></svg>