<svg xmlns="http://www.w3.org/2000/svg" xmlns:xlink="http://www.w3.org/1999/xlink" xmlns:lucid="lucid" width="550.17" height="831"><g transform="translate(-300 -200)" lucid:page-tab-id="4oIIeEK9CALz"><path d="M0 0h1870.87v1322.83H0z" fill="#fff"/><path d="M370 320c-27.6 0-50-22.4-50-50s22.4-50 50-50 50 22.4 50 50-22.4 50-50 50z" stroke="#5e5e5e" stroke-width="3" fill="#fff"/><path d="M320 320h100" stroke="#5e5e5e" stroke-width="3" fill="none"/><use xlink:href="#a" transform="matrix(1,0,0,1,280,320) translate(56.11111111111111 17.77777777777778)"/><path d="M370 361v19.94m0 19.94v39.88m0 19.94v39.88m0 19.94v39.87m0 19.93v39.88m0 19.95v39.88m0 19.94v39.88m0 19.94v39.87m0 19.94v39.88m0 19.94v39.88m0 19.94v39.88m0 19.94V1019M370 361.03V360M370 1018.97v1.03" stroke="#5e5e5e" stroke-width="2" fill="none"/><path d="M780.17 320c-27.62 0-50-22.4-50-50s22.38-50 50-50c27.6 0 50 22.4 50 50s-22.4 50-50 50z" stroke="#5e5e5e" stroke-width="3" fill="#fff"/><path d="M730.17 320h100" stroke="#5e5e5e" stroke-width="3" fill="none"/><use xlink:href="#b" transform="matrix(1,0,0,1,690.1681036615535,320) translate(62.25308641975309 17.77777777777778)"/><path d="M780.17 361v19.94m0 19.94v39.88m0 19.94v39.88m0 19.94v39.87m0 19.93v39.88m0 19.95v39.88m0 19.94v39.88m0 19.94v39.87m0 19.94v39.88m0 19.94v39.88m0 19.94v39.88m0 19.94V1019M780.17 361.03V360M780.17 1018.97v1.03" stroke="#5e5e5e" stroke-width="2" fill="none"/><path d="M350 366c0-3.3 2.7-6 6-6h28c3.3 0 6 2.7 6 6v108c0 3.3-2.7 6-6 6h-28c-3.3 0-6-2.7-6-6z" stroke="#5e5e5e" stroke-width="3" fill="#fff"/><path d="M390.83 361.6l349.42 32.68" stroke="#5e5e5e" stroke-width="2" fill="none"/><path d="M390.95 360.6l-.2 2-.12-.02-.1-.4-1.8-1.8" fill="#5e5e5e"/><path d="M755.45 395.7L740.8 399l.87-9.25z" stroke="#5e5e5e" stroke-width="2" fill="#5e5e5e"/><use xlink:href="#c" transform="matrix(1,0,0,1,539.2938903512497,354.9022096545193) translate(0 14.222222222222223)"/><use xlink:href="#d" transform="matrix(1,0,0,1,539.2938903512497,354.9022096545193) translate(48.296296296296305 14.222222222222223)"/><path d="M760.17 386c0-3.3 2.68-6 6-6h28c3.3 0 6 2.7 6 6v28c0 3.3-2.7 6-6 6h-28c-3.32 0-6-2.7-6-6z" stroke="#5e5e5e" stroke-width="3" fill="#fff"/><path d="M758.6 417.72L409.8 471.4" stroke="#5e5e5e" stroke-width="2" fill="none"/><path d="M759.64 417.8l.66.66-1.58.25-.3-1.97.9-.14" fill="#5e5e5e"/><path d="M394.7 473.7l13.4-6.74 1.4 9.16z" stroke="#5e5e5e" stroke-width="2" fill="#5e5e5e"/><use xlink:href="#e" transform="matrix(1,0,0,1,554.9287491520503,446.88459708783296) translate(0 14.222222222222223)"/><use xlink:href="#f" transform="matrix(1,0,0,1,554.9287491520503,446.88459708783296) translate(99.50617283950618 14.222222222222223)"/><path d="M350 506c0-3.3 2.7-6 6-6h28c3.3 0 6 2.7 6 6v28c0 3.3-2.7 6-6 6h-28c-3.3 0-6-2.7-6-6z" stroke="#5e5e5e" stroke-width="3" fill="#fff"/><path d="M392.5 522.67h347.67" stroke="#5e5e5e" stroke-width="2" fill="none"/><path d="M392.53 523.67h-1.03v-2h1.03" fill="#5e5e5e"/><path d="M755.43 522.67l-14.26 4.63v-9.27z" stroke="#5e5e5e" stroke-width="2" fill="#5e5e5e"/><use xlink:href="#g" transform="matrix(1,0,0,1,497.2075086209003,497.3333333333333) translate(0 14.222222222222223)"/><use xlink:href="#h" transform="matrix(1,0,0,1,497.2075086209003,497.3333333333333) translate(48.296296296296305 14.222222222222223)"/><use xlink:href="#i" transform="matrix(1,0,0,1,497.2075086209003,497.3333333333333) translate(126.12345679012347 14.222222222222223)"/><path d="M760.17 514c0-3.3 2.68-6 6-6h28c3.3 0 6 2.7 6 6v28c0 3.3-2.7 6-6 6h-28c-3.32 0-6-2.7-6-6zM350 626c0-3.3 2.7-6 6-6h28c3.3 0 6 2.7 6 6v108c0 3.3-2.7 6-6 6h-28c-3.3 0-6-2.7-6-6zM760.17 666c0-3.3 2.68-6 6-6h28c3.3 0 6 2.7 6 6v28c0 3.3-2.7 6-6 6h-28c-3.32 0-6-2.7-6-6z" stroke="#5e5e5e" stroke-width="3" fill="#fff"/><path d="M392.5 630.76l347.75 33.28" stroke="#5e5e5e" stroke-width="2" fill="none"/><path d="M392.62 629.77l-.2 2-.92-.1v-2" fill="#5e5e5e"/><path d="M755.45 665.5l-14.65 3.25.9-9.23z" stroke="#5e5e5e" stroke-width="2" fill="#5e5e5e"/><use xlink:href="#c" transform="matrix(1,0,0,1,540.748158221768,624.4438536537178) translate(0 14.222222222222223)"/><use xlink:href="#d" transform="matrix(1,0,0,1,540.748158221768,624.4438536537178) translate(48.296296296296305 14.222222222222223)"/><path d="M758.03 695.62l-348.4 37.6" stroke="#5e5e5e" stroke-width="2" fill="none"/><path d="M759.3 696.5l-1.2.12-.2-2 .86-.08" fill="#5e5e5e"/><path d="M394.44 734.86l13.7-6.14.98 9.22z" stroke="#5e5e5e" stroke-width="2" fill="#5e5e5e"/><use xlink:href="#e" transform="matrix(1,0,0,1,544.7397146466951,717.6351474003613) translate(0 14.222222222222223)"/><use xlink:href="#j" transform="matrix(1,0,0,1,544.7397146466951,717.6351474003613) translate(99.50617283950618 14.222222222222223)"/><path d="M350 766c0-3.3 2.7-6 6-6h28c3.3 0 6 2.7 6 6v28c0 3.3-2.7 6-6 6h-28c-3.3 0-6-2.7-6-6zM760.17 766c0-3.3 2.68-6 6-6h28c3.3 0 6 2.7 6 6v28c0 3.3-2.7 6-6 6h-28c-3.32 0-6-2.7-6-6z" stroke="#5e5e5e" stroke-width="3" fill="#fff"/><path d="M392.5 780l347.67 1.27" stroke="#5e5e5e" stroke-width="2" fill="none"/><path d="M392.53 779v2h-1.03v-2" fill="#5e5e5e"/><path d="M755.43 781.32l-14.28 4.6.03-9.3z" stroke="#5e5e5e" stroke-width="2" fill="#5e5e5e"/><g><use xlink:href="#g" transform="matrix(1,0,0,1,499.0330569184498,755.3366476045418) translate(0 14.222222222222223)"/><use xlink:href="#h" transform="matrix(1,0,0,1,499.0330569184498,755.3366476045418) translate(48.296296296296305 14.222222222222223)"/><use xlink:href="#k" transform="matrix(1,0,0,1,499.0330569184498,755.3366476045418) translate(126.12345679012347 14.222222222222223)"/></g><defs><path fill="#333" d="M240 0l2-218c-23 76-54 145-80 218h-23L58-218 59 0H30v-248h44l77 211c21-75 51-140 76-211h43V0h-30" id="l"/><path fill="#333" d="M141-36C126-15 110 5 73 4 37 3 15-17 15-53c-1-64 63-63 125-63 3-35-9-54-41-54-24 1-41 7-42 31l-33-3c5-37 33-52 76-52 45 0 72 20 72 64v82c-1 20 7 32 28 27v20c-31 9-61-2-59-35zM48-53c0 20 12 33 32 33 41-3 63-29 60-74-43 2-92-5-92 41" id="m"/><path fill="#333" d="M135-143c-3-34-86-38-87 0 15 53 115 12 119 90S17 21 10-45l28-5c4 36 97 45 98 0-10-56-113-15-118-90-4-57 82-63 122-42 12 7 21 19 24 35" id="n"/><path fill="#333" d="M59-47c-2 24 18 29 38 22v24C64 9 27 4 27-40v-127H5v-23h24l9-43h21v43h35v23H59v120" id="o"/><path fill="#333" d="M100-194c63 0 86 42 84 106H49c0 40 14 67 53 68 26 1 43-12 49-29l28 8c-11 28-37 45-77 45C44 4 14-33 15-96c1-61 26-98 85-98zm52 81c6-60-76-77-97-28-3 7-6 17-6 28h103" id="p"/><path fill="#333" d="M114-163C36-179 61-72 57 0H25l-1-190h30c1 12-1 29 2 39 6-27 23-49 58-41v29" id="q"/><g id="a"><use transform="matrix(0.06172839506172839,0,0,0.06172839506172839,0,0)" xlink:href="#l"/><use transform="matrix(0.06172839506172839,0,0,0.06172839506172839,18.456790123456788,0)" xlink:href="#m"/><use transform="matrix(0.06172839506172839,0,0,0.06172839506172839,30.80246913580247,0)" xlink:href="#n"/><use transform="matrix(0.06172839506172839,0,0,0.06172839506172839,41.91358024691358,0)" xlink:href="#o"/><use transform="matrix(0.06172839506172839,0,0,0.06172839506172839,48.086419753086425,0)" xlink:href="#p"/><use transform="matrix(0.06172839506172839,0,0,0.06172839506172839,60.4320987654321,0)" xlink:href="#q"/></g><path fill="#333" d="M185-189c-5-48-123-54-124 2 14 75 158 14 163 119 3 78-121 87-175 55-17-10-28-26-33-46l33-7c5 56 141 63 141-1 0-78-155-14-162-118-5-82 145-84 179-34 5 7 8 16 11 25" id="r"/><path fill="#333" d="M24 0v-261h32V0H24" id="s"/><path fill="#333" d="M108 0H70L1-190h34L89-25l56-165h34" id="t"/><g id="b"><use transform="matrix(0.06172839506172839,0,0,0.06172839506172839,0,0)" xlink:href="#r"/><use transform="matrix(0.06172839506172839,0,0,0.06172839506172839,14.814814814814813,0)" xlink:href="#s"/><use transform="matrix(0.06172839506172839,0,0,0.06172839506172839,19.691358024691354,0)" xlink:href="#m"/><use transform="matrix(0.06172839506172839,0,0,0.06172839506172839,32.03703703703703,0)" xlink:href="#t"/><use transform="matrix(0.06172839506172839,0,0,0.06172839506172839,43.14814814814814,0)" xlink:href="#p"/></g><path fill="#333" d="M240-174c0 40-23 61-54 70L253 0h-59l-57-94H76V0H24v-248c93 4 217-23 216 74zM76-134c48-2 112 12 112-38 0-48-66-32-112-35v73" id="u"/><path fill="#333" d="M185-48c-13 30-37 53-82 52C43 2 14-33 14-96s30-98 90-98c62 0 83 45 84 108H66c0 31 8 55 39 56 18 0 30-7 34-22zm-45-69c5-46-57-63-70-21-2 6-4 13-4 21h74" id="v"/><path fill="#333" d="M133-34C117-15 103 5 69 4 32 3 11-16 11-54c-1-60 55-63 116-61 1-26-3-47-28-47-18 1-26 9-28 27l-52-2c7-38 36-58 82-57s74 22 75 68l1 82c-1 14 12 18 25 15v27c-30 8-71 5-69-32zm-48 3c29 0 43-24 42-57-32 0-66-3-65 30 0 17 8 27 23 27" id="w"/><path fill="#333" d="M88-194c31-1 46 15 58 34l-1-101h50l1 261h-48c-2-10 0-23-3-31C134-8 116 4 84 4 32 4 16-41 15-95c0-56 19-97 73-99zm17 164c33 0 40-30 41-66 1-37-9-64-41-64s-38 30-39 65c0 43 13 65 39 65" id="x"/><g id="c"><use transform="matrix(0.04938271604938272,0,0,0.04938271604938272,0,0)" xlink:href="#u"/><use transform="matrix(0.04938271604938272,0,0,0.04938271604938272,12.790123456790125,0)" xlink:href="#v"/><use transform="matrix(0.04938271604938272,0,0,0.04938271604938272,22.66666666666667,0)" xlink:href="#w"/><use transform="matrix(0.04938271604938272,0,0,0.04938271604938272,32.543209876543216,0)" xlink:href="#x"/></g><path fill="#333" d="M25 0v-261h50V0H25" id="y"/><path fill="#333" d="M85 4C-2 5 27-109 22-190h50c7 57-23 150 33 157 60-5 35-97 40-157h50l1 190h-47c-2-12 1-28-3-38-12 25-28 42-61 42" id="z"/><path fill="#333" d="M220-157c-53 9-28 100-34 157h-49v-107c1-27-5-49-29-50C55-147 81-57 75 0H25l-1-190h47c2 12-1 28 3 38 10-53 101-56 108 0 13-22 24-43 59-42 82 1 51 116 57 194h-49v-107c-1-25-5-48-29-50" id="A"/><path fill="#333" d="M25-224v-37h50v37H25zM25 0v-190h50V0H25" id="B"/><path fill="#333" d="M135-194c87-1 58 113 63 194h-50c-7-57 23-157-34-157-59 0-34 97-39 157H25l-1-190h47c2 12-1 28 3 38 12-26 28-41 61-42" id="C"/><path fill="#333" d="M110-194c64 0 96 36 96 99 0 64-35 99-97 99-61 0-95-36-95-99 0-62 34-99 96-99zm-1 164c35 0 45-28 45-65 0-40-10-65-43-65-34 0-45 26-45 65 0 36 10 65 43 65" id="D"/><path fill="#333" d="M137-138c1-29-70-34-71-4 15 46 118 7 119 86 1 83-164 76-172 9l43-7c4 19 20 25 44 25 33 8 57-30 24-41C81-84 22-81 20-136c-2-80 154-74 161-7" id="E"/><path fill="#333" d="M115-3C79 11 28 4 28-45v-112H4v-33h27l15-45h31v45h36v33H77v99c-1 23 16 31 38 25v30" id="F"/><path fill="#333" d="M123 10C108 53 80 86 19 72V37c35 8 53-11 59-39L3-190h52l48 148c12-52 28-100 44-148h51" id="G"/><g id="d"><use transform="matrix(0.04938271604938272,0,0,0.04938271604938272,0,0)" xlink:href="#y"/><use transform="matrix(0.04938271604938272,0,0,0.04938271604938272,4.938271604938272,0)" xlink:href="#z"/><use transform="matrix(0.04938271604938272,0,0,0.04938271604938272,15.753086419753087,0)" xlink:href="#A"/><use transform="matrix(0.04938271604938272,0,0,0.04938271604938272,31.555555555555557,0)" xlink:href="#B"/><use transform="matrix(0.04938271604938272,0,0,0.04938271604938272,36.49382716049383,0)" xlink:href="#C"/><use transform="matrix(0.04938271604938272,0,0,0.04938271604938272,47.308641975308646,0)" xlink:href="#D"/><use transform="matrix(0.04938271604938272,0,0,0.04938271604938272,58.12345679012346,0)" xlink:href="#E"/><use transform="matrix(0.04938271604938272,0,0,0.04938271604938272,68,0)" xlink:href="#B"/><use transform="matrix(0.04938271604938272,0,0,0.04938271604938272,72.93827160493828,0)" xlink:href="#F"/><use transform="matrix(0.04938271604938272,0,0,0.04938271604938272,78.81481481481482,0)" xlink:href="#G"/></g><path fill="#333" d="M24 0v-248h52v208h133V0H24" id="H"/><g id="e"><use transform="matrix(0.04938271604938272,0,0,0.04938271604938272,0,0)" xlink:href="#H"/><use transform="matrix(0.04938271604938272,0,0,0.04938271604938272,10.814814814814815,0)" xlink:href="#z"/><use transform="matrix(0.04938271604938272,0,0,0.04938271604938272,21.62962962962963,0)" xlink:href="#A"/><use transform="matrix(0.04938271604938272,0,0,0.04938271604938272,37.4320987654321,0)" xlink:href="#B"/><use transform="matrix(0.04938271604938272,0,0,0.04938271604938272,42.370370370370374,0)" xlink:href="#C"/><use transform="matrix(0.04938271604938272,0,0,0.04938271604938272,53.18518518518519,0)" xlink:href="#D"/><use transform="matrix(0.04938271604938272,0,0,0.04938271604938272,64,0)" xlink:href="#E"/><use transform="matrix(0.04938271604938272,0,0,0.04938271604938272,73.87654320987654,0)" xlink:href="#B"/><use transform="matrix(0.04938271604938272,0,0,0.04938271604938272,78.81481481481481,0)" xlink:href="#F"/><use transform="matrix(0.04938271604938272,0,0,0.04938271604938272,84.69135802469135,0)" xlink:href="#G"/></g><path fill="#333" d="M182-182c0 78-84 86-111 141h115V0H12c-6-101 99-100 120-180 1-22-12-31-33-32-23 0-32 14-35 34l-49-3c5-45 32-70 84-70 51 0 83 22 83 69" id="I"/><path fill="#333" d="M101-251c68 0 84 54 84 127C185-50 166 4 99 4S15-52 14-124c-1-75 17-127 87-127zm-1 216c37-5 36-46 36-89s4-89-36-89c-39 0-36 45-36 89 0 43-3 85 36 89" id="J"/><g id="f"><use transform="matrix(0.04938271604938272,0,0,0.04938271604938272,0,0)" xlink:href="#I"/><use transform="matrix(0.04938271604938272,0,0,0.04938271604938272,9.876543209876544,0)" xlink:href="#J"/><use transform="matrix(0.04938271604938272,0,0,0.04938271604938272,19.75308641975309,0)" xlink:href="#J"/></g><path fill="#333" d="M169-182c-1-43-94-46-97-3 18 66 151 10 154 114 3 95-165 93-204 36-6-8-10-19-12-30l50-8c3 46 112 56 116 5-17-69-150-10-154-114-4-87 153-88 188-35 5 8 8 18 10 28" id="K"/><g id="g"><use transform="matrix(0.04938271604938272,0,0,0.04938271604938272,0,0)" xlink:href="#K"/><use transform="matrix(0.04938271604938272,0,0,0.04938271604938272,11.851851851851853,0)" xlink:href="#v"/><use transform="matrix(0.04938271604938272,0,0,0.04938271604938272,21.7283950617284,0)" xlink:href="#C"/><use transform="matrix(0.04938271604938272,0,0,0.04938271604938272,32.543209876543216,0)" xlink:href="#x"/></g><g id="h"><use transform="matrix(0.04938271604938272,0,0,0.04938271604938272,0,0)" xlink:href="#B"/><use transform="matrix(0.04938271604938272,0,0,0.04938271604938272,4.938271604938272,0)" xlink:href="#C"/><use transform="matrix(0.04938271604938272,0,0,0.04938271604938272,15.753086419753087,0)" xlink:href="#F"/><use transform="matrix(0.04938271604938272,0,0,0.04938271604938272,21.62962962962963,0)" xlink:href="#v"/><use transform="matrix(0.04938271604938272,0,0,0.04938271604938272,31.506172839506174,0)" xlink:href="#C"/><use transform="matrix(0.04938271604938272,0,0,0.04938271604938272,42.32098765432099,0)" xlink:href="#E"/><use transform="matrix(0.04938271604938272,0,0,0.04938271604938272,52.19753086419754,0)" xlink:href="#B"/><use transform="matrix(0.04938271604938272,0,0,0.04938271604938272,57.135802469135804,0)" xlink:href="#F"/><use transform="matrix(0.04938271604938272,0,0,0.04938271604938272,63.01234567901235,0)" xlink:href="#G"/></g><path fill="#333" d="M23 0v-37h61v-169l-59 37v-38l62-41h46v211h57V0H23" id="L"/><g id="i"><use transform="matrix(0.04938271604938272,0,0,0.04938271604938272,0,0)" xlink:href="#L"/><use transform="matrix(0.04938271604938272,0,0,0.04938271604938272,9.876543209876544,0)" xlink:href="#J"/><use transform="matrix(0.04938271604938272,0,0,0.04938271604938272,19.75308641975309,0)" xlink:href="#J"/></g><g id="j"><use transform="matrix(0.04938271604938272,0,0,0.04938271604938272,0,0)" xlink:href="#L"/><use transform="matrix(0.04938271604938272,0,0,0.04938271604938272,9.876543209876544,0)" xlink:href="#J"/><use transform="matrix(0.04938271604938272,0,0,0.04938271604938272,19.75308641975309,0)" xlink:href="#J"/></g><g id="k"><use transform="matrix(0.04938271604938272,0,0,0.04938271604938272,0,0)" xlink:href="#I"/><use transform="matrix(0.04938271604938272,0,0,0.04938271604938272,9.876543209876544,0)" xlink:href="#J"/><use transform="matrix(0.04938271604938272,0,0,0.04938271604938272,19.75308641975309,0)" xlink:href="#J"/></g></defs></g></svg>